<?xml version="1.0" encoding="UTF-8"?>
<svg version="1.1" xmlns="http://www.w3.org/2000/svg">
<path d="M0 0 C1.5159375 -0.02126953 1.5159375 -0.02126953 3.0625 -0.04296875 C6 0.1875 6 0.1875 11 2.1875 C11 10.7675 11 19.3475 11 28.1875 C8.69 26.8675 6.38 25.5475 4 24.1875 C-0.1934148 23.18520754 -3.46211634 23.9134838 -7.3125 25.875 C-10.16164283 28.32658802 -11.6316497 29.69060479 -13 33.1875 C-13 36.4875 -13 39.7875 -13 43.1875 C-20.92 43.1875 -28.84 43.1875 -37 43.1875 C-37 29.30782961 -35.57654624 20.27554303 -26.1484375 10.2109375 C-18.60596931 3.1492641 -10.27527837 0.06553111 0 0 Z " fill="#E96BBB" transform="translate(57,24.8125)"/>
<path d="M0 0 C3.74973906 -0.11622939 7.49901464 -0.1872595 11.25 -0.25 C12.31347656 -0.28351562 13.37695312 -0.31703125 14.47265625 -0.3515625 C15.49746094 -0.36445312 16.52226562 -0.37734375 17.578125 -0.390625 C18.99206543 -0.4220459 18.99206543 -0.4220459 20.43457031 -0.45410156 C23.7323629 0.12963409 24.81602546 1.54377494 27 4 C28.97735077 4.62222293 28.97735077 4.62222293 31 4.5 C31.99 4.51546875 31.99 4.51546875 33 4.53125 C35.20381723 4.14272819 35.20381723 4.14272819 36.78613281 1.99121094 C39.54140082 -0.48695028 40.77290949 -0.47171312 44.421875 -0.390625 C45.95908203 -0.37128906 45.95908203 -0.37128906 47.52734375 -0.3515625 C49.12255859 -0.30128906 49.12255859 -0.30128906 50.75 -0.25 C52.36841797 -0.22292969 52.36841797 -0.22292969 54.01953125 -0.1953125 C56.68058788 -0.14821415 59.33984254 -0.082456 62 0 C60.03475877 10.33535048 55.83409991 17.92167019 47 24 C38.94271469 28.58159361 30.13971925 28.89577667 21.3125 26.5625 C12.22057924 23.38304987 6.43360419 17.74436325 1.875 9.37109375 C0.73770493 6.2892272 0.37854876 3.2531534 0 0 Z " fill="#2926C8" transform="translate(3,0)"/>
<path d="M0 0 C7.48464527 0.51618243 11.44133014 2.32502696 16.75 7.875 C20.1453369 12.59074569 21.5408764 16.91030519 21.3828125 22.78125 C20.4165355 28.38171264 17.56191777 33.35365424 13.6875 37.4375 C9.35135944 39.95851196 5.0665877 42 0 42 C0 36.72 0 31.44 0 26 C1.32 25.34 2.64 24.68 4 24 C5.23843794 21.04680182 5.04187157 20.12561472 4 17 C2.68 16.34 1.36 15.68 0 15 C0 10.05 0 5.1 0 0 Z " fill="#75DDCB" transform="translate(0,20)"/>
</svg>
